/* XPM */
static char *dummy[]={
"32 32 246 2",
"Qt c None",
".e c #304f7e",
".S c #000000",
"bA c #000000",
".R c #304f7e",
".d c #304f7e",
"bO c #000000",
"bm c #304f7e",
".C c #000000",
".o c #304f7e",
"bT c #000000",
"bl c #304f7e",
"bH c #000000",
".D c #000000",
".9 c #304f7e",
".# c #304f7e",
"bN c #000000",
".T c #000000",
".c c #304f7e",
".E c #0b121d",
"bk c #304f7e",
"bM c #000000",
"bG c #000000",
".a c #304f7e",
"bZ c #000000",
".b c #304f7e",
".f c #3f5c88",
"bS c #1e1e1e",
"bY c #212121",
"bz c #222222",
".Q c #4e6992",
"bj c #253c60",
"bF c #343434",
"bd c #49699b",
".B c #5d759b",
"bw c #404040",
".U c #4b4b4b",
"a9 c #5473a4",
".p c #6880a4",
".w c #8799b6",
"bc c #6e8dbe",
"bX c #707070",
"bL c #737373",
"bR c #747474",
"bq c #444547",
"aV c #7695c6",
"aO c #7796c6",
"a3 c #7896c6",
"bU c #7b7b7b",
"bP c #7c7c7c",
"aJ c #7c99c6",
"aB c #829cc6",
"au c #859ec6",
"bB c #868686",
"bI c #878787",
"ah c #89a0c6",
"br c #8a8a8a",
"bn c #8d8d8d",
".V c #8e8e8e",
"an c #8ea4c6",
"ac c #91a6c6",
"#4 c #92a6c6",
"#T c #96a9c6",
"#J c #9aabc6",
".8 c #9dadc6",
"#u c #93a3bc",
"#E c #95a6c0",
"#i c #97a7c0",
".F c #3b485c",
"bE c #919191",
".n c #abb8cd",
".W c #8c8d8e",
"bb c #7ca2dd",
"bW c #b1b1b1",
"bK c #b6b6b6",
"bD c #c0c0c0",
"by c #cfcfcf",
"bi c #454950",
".X c #8b8d90",
"a8 c #a1c2f8",
".g c #e2ebf8",
".P c #eceff7",
".2 c #3f3f3f",
"b# c #555961",
"a4 c #565b61",
"aQ c #585c62",
"aY c #595e64",
"aE c #5a5d62",
"aK c #5a5e64",
"#Y c #5c5d5e",
"ap c #5c5f63",
"ak c #5e6064",
"aw c #5e6164",
"a. c #5f6163",
"#H c #606162",
"ae c #616265",
".H c #626466",
"#d c #636365",
".I c #636466",
"#P c #646566",
".J c #6f7073",
"#r c #76787b",
".G c #797c80",
"#n c #7b7d7f",
"#y c #7c7d7f",
"#s c #848689",
"a5 c #8aa3cc",
"aZ c #8fa6cc",
"aL c #93a9cc",
"ba c #96aacc",
"aR c #9aadcc",
"a2 c #9cc2ff",
"a6 c #9ec3ff",
"#W c #a0a0a0",
"aF c #a2b2cc",
"#q c #a4a6a9",
"ax c #a4b3cc",
"a0 c #a4c7ff",
"a7 c #a7c8ff",
"#X c #aaaaaa",
"#m c #acadad",
"#M c #adadad",
"#x c #aeaeaf",
"af c #aeb9cc",
"#N c #afafaf",
"aM c #afcdff",
"aT c #b0ceff",
".Y c #b1b1b2",
"aH c #b2cfff",
"#V c #b3b3b3",
".3 c #b3b6ba",
"a1 c #b5d1ff",
"a# c #b6bdcb",
"#Z c #b8bfcb",
"#t c #bbbec3",
"aG c #bbd4ff",
"#L c #bcbcbc",
"aI c #bed6ff",
"#O c #bfbfbf",
"aN c #bfd7ff",
".K c #c1c2c7",
"aU c #c1d8ff",
"#Q c #c2c5cb",
"ay c #c2d9ff",
"#I c #c3c6cc",
"az c #c5dbff",
"#K c #c6c6c6",
".1 c #c6c7c7",
"#g c #c6cdda",
"at c #c7dcff",
"aS c #c8ddff",
"#c c #c9c9c9",
".Z c #c9caca",
"#F c #cacaca",
"#C c #caced6",
"#w c #cbcbcb",
"aq c #cbdfff",
"#B c #cccfd4",
"#o c #ced0d4",
".5 c #ced6e3",
"#e c #d0d0d4",
".0 c #d0d1d1",
"aA c #d1e2ff",
"al c #d3e3ff",
"#k c #d4d4d4",
"as c #d4e4ff",
".M c #d5deeb",
".4 c #d6d8dc",
"#h c #d6dce7",
"#f c #d7d9dd",
"ar c #d7e6ff",
"bJ c #d8d8d8",
"#A c #d9dde3",
"ab c #d9e7ff",
"bC c #dadad9",
"bV c #dadada",
"am c #dae8ff",
"bx c #dbdbdb",
".L c #dbdde1",
"#D c #dbe0e8",
"aa c #dce9ff",
"bu c #dddddd",
"#2 c #ddeaff",
"bp c #dedede",
"#U c #dfdfdf",
".y c #dfe8f6",
"bo c #e0e0e0",
"#p c #e0e1e6",
".6 c #e0ebfb",
"ag c #e0ecff",
"bv c #e1e1e1",
"bQ c #e2e2e2",
"#3 c #e2ecff",
"bf c #e3e3e3",
".z c #e3e7ef",
".N c #e3eeff",
"bs c #e5e5e5",
".O c #e5e7ec",
"#S c #e5eeff",
"bh c #e6e6e6",
"#R c #e6efff",
"bg c #e7e7e7",
"b. c #e8e7e8",
"#7 c #e8e8e8",
".7 c #e8eaf1",
"#0 c #e8f0ff",
"#a c #e9e9e9",
"#1 c #e9f1ff",
"bt c #eaeaea",
".x c #eaebef",
"#8 c #ebebeb",
"#6 c #ececec",
".q c #ecf3ff",
"aW c #ededed",
".u c #edf1fa",
"aP c #eeeeee",
".h c #eef4ff",
"be c #efefef",
".i c #eff5ff",
"#9 c #f0f0f0",
"aD c #f1f1f1",
"#z c #f1f3f8",
".j c #f1f6ff",
"aX c #f2f2f2",
".k c #f2f7ff",
"#v c #f3f3f3",
"#j c #f4f4f4",
".v c #f4f6fb",
".s c #f4f8ff",
"#G c #f5f5f5",
".A c #f5f7fc",
".r c #f5f9ff",
"aC c #f6f6f6",
".t c #f6f7fb",
"av c #f7f7f7",
".m c #f7f9ff",
"## c #f8f8f8",
".l c #f8faff",
"aj c #f9f9f9",
"ao c #fafafa",
"ai c #fafbfb",
"#l c #fbfbfb",
"#b c #fcfcfc",
"ad c #fdfdfd",
"#5 c #fefefe",
"#. c #ffffff",
"QtQtQtQtQtQtQtQtQtQtQtQt.#.a.b.b.b.b.b.b.b.b.b.c.dQtQtQtQtQtQtQt",
"QtQtQtQtQtQtQtQtQtQtQt.e.f.g.h.i.j.j.k.k.l.m.l.n.cQtQtQtQtQtQtQt",
"QtQtQtQtQtQtQtQtQtQtQt.o.p.q.j.i.r.s.s.m.m.t.u.v.w.cQtQtQtQtQtQt",
"QtQtQtQtQtQtQtQtQtQtQt.o.p.j.k.r.r.m.m.m.m.x.y.z.A.B.#QtQtQtQtQt",
"QtQtQtQtQtQt.C.C.C.D.D.E.F.G.H.I.J.K.m.m.m.L.M.N.O.P.Q.RQtQtQtQt",
"QtQtQtQt.S.T.U.U.U.V.V.W.X.Y.Z.0.1.2.3.l.l.4.5.N.6.7.8.9QtQtQtQt",
"QtQtQtQt.D.V#.#.#.#.#.#.#.#.###a#b#c#d#e.m#f#g.N.N#h#i.9QtQtQtQt",
"QtQtQtQt.D.V#.#.#.#.#.#.#.#.#j#k#.#l#m#n#o#p#q#r#s#t#u.9QtQtQtQt",
"QtQtQtQt.D.V#.#.#.#.#.#.#.#.#v#w#.#.#j#x#y#z#A#B#C#D#E.9QtQtQtQt",
"QtQtQtQt.D.V#.#.#.#.#.#.#.#.#v#F#.#.#.#G#H#I.h.q.i.h#J.9QtQtQtQt",
"QtQtQtQt.D.V#.#.#.#.#.#.#.#.#G#K#L#M#N#O#P#Q.h.i#R#S#T.9QtQtQtQt",
"QtQtQtQt.D.V#.#.#.#.#.#.#.#.#l#U#V#W#X#K#Y#Z#0#1#2#3#4.9QtQtQtQt",
"QtQtQtQt.D.V#.#.#.#.#.#.#.#.#5###6#7#8#9a.a##S#2aaabac.9QtQtQtQt",
"QtQtQtQt.D.V#.#.#.#.#.#.#.#.#.#.#5ad#b#laeaf#3agaaabah.9QtQtQtQt",
"QtQtQtQt.D.V#.#.#.#.#.#.#.#.#.#5#5adaiajakafalamaa#San.9QtQtQtQt",
"QtQtQtQt.D.V#.#.#.#.#.#.#.#.#5#5adao#l##apafaqarasatau.9QtQtQtQt",
"QtQtQtQt.D.V#.#.#.#.#.#.#.#.#5ad#b####avawaxayazaAazaB.9QtQtQtQt",
"QtQtQtQt.D.V#.#.#.#.#.#.#.#5#5#l#baCavaDaEaFaGaHayaIaJ.9QtQtQtQt",
"QtQtQtQt.D.V#.#.#.#.#.#.#.#5#lajajav#GaCaKaLaMayaNazaO.9QtQtQtQt",
"QtQtQtQt.D.V#.#.#.#.#.#.#5ad#b##aDaDaP#GaQaRaSaSaTaUaV.9QtQtQtQt",
"QtQtQtQt.D.V#.#.#.#.#5#5#5aoaj#v#jaWaXaPaYaZa0a1aNa2a3.9QtQtQtQt",
"QtQtQtQt.D.V#.#.#.#5#5#b#laj#GaD#6aWaC#Ga4a5aTa6a7a8a9.oQtQtQtQt",
"QtQtQtQt.D.V#.#5#5#b#laj#l##aWaDb.aPaD#6b#babbbcbd.a.#QtQtQtQtQt",
"QtQtQtQt.D.V#b#b#b#l#b#G##bebf#6#abebgbhbibjbkblbmQtQtQtQtQtQtQt",
"QtQtQtQt.Dbn#bajavaj#v#6aD#8aPbobobhbpbfbq.CQtQtQtQtQtQtQtQtQtQt",
"QtQtQtQt.Dbr##av#G#7#8#Gbsbtbubtbvbobpbvbw.CQtQtQtQtQtQtQtQtQtQt",
"QtQtQtQt.DbraC#v#6bt#vbt#9#aaPbxbgaDbtbybzbAQtQtQtQtQtQtQtQtQtQt",
"QtQtQtQt.DbBbebf#7#7aDbh#7bCbubhbDbEbFbGbHQtQtQtQtQtQtQtQtQtQtQt",
"QtQtQtQt.DbI##bgbf#8bsbJbobKbLbzbMbNbOQtQtQtQtQtQtQtQtQtQtQtQtQt",
"QtQtQtQt.DbPbQbxbu#UbDbRbSbMbTbAQtQtQtQtQtQtQtQtQtQtQtQtQtQtQtQt",
"QtQtQtQt.DbUbVbWbXbYbMbTbAQtQtQtQtQtQtQtQtQtQtQtQtQtQtQtQtQtQtQt",
"QtQtQtQt.S.TbZbMbTbAQtQtQtQtQtQtQtQtQtQtQtQtQtQtQtQtQtQtQtQtQtQt"};
