/* XPM */
static char *dummy[]={
"32 32 478 2",
".m c None",
"Qt c None",
".e c #000000",
"dN c #000000",
"fv c #000000",
"#k c #000000",
"cR c #000000",
".k c #000000",
"d2 c #000000",
"bQ c #000000",
"fm c #000000",
".# c #000000",
"#l c #000000",
"eg c #000000",
".d c #000000",
"e4 c #000000",
".X c #000000",
".x c #000000",
"fA c #000000",
"fn c #000000",
"eH c #000000",
"da c #000000",
".Y c #000000",
".n c #000000",
"d1 c #000000",
"#. c #000000",
"c# c #000000",
".f c #000000",
"eU c #000000",
".W c #000000",
"b. c #000000",
".a c #000000",
"ef c #000000",
"#m c #000000",
"fu c #000000",
".c c #000000",
"dt c #000000",
"eu c #000000",
"dM c #000000",
"cv c #000000",
"bt c #000000",
".y c #000000",
"eG c #000000",
"fd c #000000",
"fw c #000000",
"#A c #000000",
".K c #000000",
"#R c #000000",
"ft c #000000",
"cQ c #000000",
".o c #000000",
"bP c #000000",
"et c #000000",
"aQ c #000000",
".l c #000000",
"fc c #000000",
"fB c #000000",
".b c #000000",
"ca c #000000",
"cw c #000000",
"cS c #000000",
"db c #000000",
"du c #000000",
".u c #161616",
"d# c #212324",
".g c #222425",
"#j c #252525",
"dO c #000000",
"d3 c #000000",
"eh c #000000",
"ev c #000000",
"eI c #000000",
"fl c #3c4142",
"c. c #3d4143",
".L c #404345",
"ds c #525a5c",
"ee c #555c5e",
"a9 c #575d5f",
"e3 c #687275",
"fs c #6a7376",
".z c #71787a",
".9 c #868e91",
".8 c #8e8e8e",
".G c #636365",
"es c #8b999e",
"cu c #919ca1",
"fx c #8b9ea5",
"dL c #98a8ae",
"fz c #9eacb1",
"bs c #a1aeb3",
".p c #a7b2b6",
"#S c #adb4b6",
"#U c #aeb4b6",
".v c #787879",
"eF c #a8b8be",
"fb c #a9b9bf",
"av c #abbbc0",
"#r c #b1bfc5",
"#V c #b4c1c5",
"a# c #9b9fa1",
"#Q c #b4b5b5",
"d0 c #acc0c8",
".Z c #becdd2",
".h c #bfcdd2",
".V c #cccccd",
"fk c #b2c7d0",
"#B c #c6d7dd",
"cP c #b9d0da",
".j c #d1e2e7",
"fe c #a0adb1",
"eT c #bad3de",
"ed c #c0d9e3",
"bO c #c1dae3",
"#n c #d0e6ef",
".M c #d1e6ef",
"#z c #dfe0e3",
"dr c #b7d4e1",
"fr c #bad7e3",
"aP c #c2dde9",
"aa c #e9f1f5",
".J c #ececee",
"er c #b0d1df",
"e2 c #badae6",
"#q c #d1e9f3",
"#s c #d1eefa",
".A c #d3eefa",
"d6 c #2d3337",
"dB c #323435",
"em c #333839",
"ez c #343535",
"cW c #383f44",
"df c #3e4445",
"ek c #404447",
"dU c #444545",
"dR c #454d52",
"eL c #484848",
"ex c #4c565c",
"eK c #4d595e",
"ej c #4f5b61",
"bV c #51595d",
"dx c #525c61",
"d5 c #566269",
"ey c #595b5d",
"bj c #5a5c5d",
"cA c #5a666b",
"d9 c #5b666a",
"de c #5d686e",
"fh c #5d8aa2",
"dQ c #5e6b72",
"dh c #606061",
"a1 c #606466",
"fp c #6491a7",
"ck c #656768",
"dw c #66747c",
"e8 c #6692a9",
"e6 c #67767d",
"eW c #68787f",
"d8 c #696a6b",
"cV c #69777d",
"cE c #6a6b6c",
"aI c #6b6d6d",
"ap c #6c6e70",
"ce c #6f7d84",
"dd c #6f7f87",
"dy c #707275",
"eY c #719eb5",
"bE c #727474",
"by c #728187",
"fg c #739eb3",
"eO c #74a2b9",
"cZ c #757677",
"eo c #75a2b9",
"cf c #777b7d",
"b0 c #777e7f",
"eB c #77a3b9",
"eM c #78898f",
"cU c #788992",
"aC c #798387",
"cz c #798890",
"e9 c #79a7bf",
"ak c #7c868a",
"eJ c #7d929c",
"#v c #7e8a8f",
"ew c #7f959f",
"bZ c #808182",
"c0 c #808587",
"aV c #808e95",
"c7 c #80aec6",
"c8 c #81afc7",
"#5 c #82878a",
"#e c #828b92",
"cy c #82949e",
"eV c #8298a2",
"e# c #82afc7",
"dV c #839ca6",
"cM c #84b2ca",
"c5 c #85b3cb",
"#L c #86979e",
"ei c #869da7",
"eN c #86b0c5",
"dW c #86b1c7",
"dI c #86b3ca",
"do c #86b4cc",
".6 c #878e91",
"be c #878f92",
"bU c #8798a0",
"eC c #87b4cc",
"eX c #88afc1",
"fi c #88b4ca",
"eP c #88b6ce",
"ep c #89b7cf",
"cd c #8a9ba4",
"dX c #8ab7cf",
"bF c #8b8e90",
".S c #8b9ca3",
"cc c #8b9faa",
"dp c #8bb7ce",
"c6 c #8bb9d1",
"aJ c #8c9294",
"eb c #8cb8cf",
"e0 c #8cb9d0",
"c4 c #8cbad2",
"eA c #8da8b4",
"e. c #8db7cb",
"bp c #8dbbd3",
"el c #8e8f90",
"d4 c #8ea6b1",
"c9 c #8ebad0",
"ea c #8ebbd3",
"cN c #8ebcd4",
"dS c #8f9192",
"e5 c #8fa6b0",
"dY c #8fbbd0",
"cq c #8fbdd5",
"cr c #90bed6",
"bL c #91bfd7",
"f# c #92bdd3",
"eR c #92bed4",
"f. c #92bfd6",
"eQ c #92bfd7",
"dG c #92c0d8",
"e7 c #93b6c5",
"en c #93b8c9",
"eq c #93bdd2",
"b7 c #93c1d9",
"a0 c #949696",
"ec c #94bdd1",
"cs c #94c2d9",
"dH c #94c2da",
"cF c #959a9d",
"#4 c #95a7b0",
"bS c #95abb5",
"b6 c #95c3db",
".5 c #96a8b1",
"dP c #96afbb",
"b8 c #96c3da",
"eZ c #96c4dc",
"cB c #97999a",
"cp c #97c5dd",
"#M c #989c9d",
"dq c #98c1d5",
"eD c #98c4d9",
"a7 c #98c5db",
"bM c #98c6de",
"co c #99c7df",
"bK c #9ac8e0",
"bT c #9baeb8",
"dJ c #9bc5da",
"bN c #9bc6dc",
"b5 c #9bc9e1",
"aj c #9cb0b9",
"ct c #9cc5d9",
"e1 c #9cc6da",
"cL c #9ccae2",
".T c #9da2a4",
"bx c #9db0ba",
"#d c #9db1ba",
"bv c #9db4bf",
"bo c #9dcbe3",
"a. c #9e9fa1",
"dv c #9ebac6",
"fo c #9ec6d6",
"cO c #9ec9de",
"aO c #9ecadf",
"dn c #9ecce4",
"dZ c #9fc6d9",
"fq c #9fc8dc",
"eE c #a0c7d9",
"br c #a0c9dd",
"bq c #a0cee6",
"cj c #a1a2a3",
"cK c #a1cfe7",
"dg c #a2a3a4",
".H c #a2a4a5",
"bd c #a2b6c0",
"ba c #a2bac5",
"ff c #a2bcc6",
"dm c #a2d0e8",
"aW c #a3a6a8",
"fj c #a3cbdd",
"fa c #a4c8d9",
"dF c #a4d2ea",
"aR c #a5bdc8",
"eS c #a5cde0",
"aq c #a6aaac",
"#u c #a6bbc6",
"ax c #a6beca",
"dc c #a6c3d0",
"c3 c #a6d4ec",
"dl c #a7d5ed",
"#w c #a9abae",
"aU c #a9bec8",
"#K c #a9bfc9",
"a6 c #a9d7ef",
"bw c #aabfca",
".R c #abc0cb",
"dC c #abccda",
"bi c #acacae",
"#3 c #acc1cc",
".4 c #acc2cd",
"d7 c #adaeb0",
"dA c #adafb0",
"bc c #adc3ce",
"af c #adcfe1",
"bJ c #addbf3",
"ao c #aeafb1",
"#c c #aec4cf",
".2 c #aecad8",
"cT c #aeccda",
"#a c #aecedf",
"aN c #aedcf4",
"aB c #afc5d0",
".C c #afd3e4",
"#t c #b0c6d1",
"b4 c #b0def6",
"#Y c #b1d1e1",
"dK c #b1d3e3",
"cJ c #b1dff7",
"#J c #b2c8d3",
".Q c #b2c9d4",
".D c #b2cad6",
".P c #b2cbd8",
"a8 c #b2d6e6",
"dT c #b3b5b6",
"#2 c #b3cad5",
"fy c #b3d5e3",
".O c #b3d9ed",
"a5 c #b3e1f9",
"aD c #b4b7b8",
".3 c #b4cad6",
"#E c #b4d1e0",
".s c #b4d4e5",
"b9 c #b4d7e6",
"au c #b4ddf0",
"#b c #b5cbd7",
"bb c #b5ccd7",
"aA c #b6cdd8",
"cx c #b6d5e3",
"d. c #b6d8e6",
"#D c #b6dcef",
"#I c #b7d7e8",
"cD c #b8b9bb",
"bk c #b8c3c7",
".E c #b8cfda",
"aT c #b8d0db",
"bn c #b8e6fe",
"bD c #b9bbbd",
"#1 c #b9d0dc",
".1 c #b9e2f5",
".w c #babcbc",
"#f c #babcbd",
"ai c #bad1dd",
"az c #bbd2de",
"ag c #bbd4e1",
"aS c #bcd4e0",
"#X c #bce4f7",
"cl c #bdc4c7",
"ah c #bdd5e0",
"cb c #bdddec",
"#0 c #bed5e1",
"#Z c #bed6e2",
"ay c #bfd7e3",
"## c #bfe7fa",
"bI c #bfe8ff",
"#F c #c0d8e4",
"#p c #c0e1f1",
".r c #c0e8fb",
"dE c #c1e9ff",
"#G c #c3dae6",
"bR c #c3e5f4",
"cI c #c3eaff",
"al c #c5c7c8",
"aH c #c5c7c9",
"#H c #c5deeb",
".B c #c5ecff",
"bz c #c7c8ca",
"cY c #c7c9cb",
"di c #c7d0d5",
"bu c #c7e9f9",
"aM c #c7ecff",
"bY c #c8cacc",
".N c #c8edff",
"at c #c9edff",
"#o c #c9eeff",
"aZ c #cacccd",
"b# c #caedfd",
"#C c #caeeff",
"a2 c #cbdce3",
".0 c #cbefff",
"dz c #cccecf",
"b3 c #ccedff",
"aw c #ccefff",
"cX c #cdced0",
"ci c #cdcfd0",
"c2 c #cdeeff",
"bh c #ced0d1",
"#9 c #cfd1d2",
"#W c #cfeffd",
".7 c #d0d2d3",
"ad c #d0eefa",
".q c #d0f0fd",
".F c #d1e5ee",
"bm c #d1efff",
"ae c #d1f1ff",
"cC c #d2d3d5",
"bC c #d3d4d6",
"b1 c #d3dee4",
".i c #d3f2ff",
"aG c #d4d5d7",
".t c #d4e7f0",
"bH c #d4f1ff",
"bX c #d6d8da",
"aY c #d7d9db",
"b2 c #d7f2ff",
"bl c #d8f2ff",
"#8 c #d9dbdd",
"ac c #d9f2ff",
"ch c #dadcde",
"c1 c #daeaf1",
"aK c #daeaf2",
"dD c #daf3ff",
"bg c #dbdddf",
"a3 c #dbf3ff",
"#P c #dcdee0",
"#6 c #dddee0",
"bB c #dee0e2",
"aL c #def4ff",
"ar c #def5ff",
"a4 c #dff4ff",
"aF c #e0e2e4",
"dk c #e0f4ff",
"bW c #e1e3e5",
"cH c #e1f4ff",
"cm c #e1f5ff",
"aX c #e2e4e6",
"cn c #e2f5ff",
"#O c #e3e5e7",
"cg c #e4e6e8",
"ab c #e4f6ff",
"an c #e5e7e8",
"dj c #e5f6ff",
"bA c #e7e9ea",
".I c #e8e9eb",
"as c #e8f7ff",
"#T c #e8f8fd",
"#N c #e9eaec",
"#y c #e9ebed",
"bf c #eaecee",
"am c #ebedef",
"bG c #ebf8ff",
"aE c #eceef0",
"#x c #edeff1",
"#7 c #eef0f2",
"#i c #eff1f3",
"#h c #f0f2f4",
"#g c #f1f3f5",
"cG c #f1faff",
".U c #f2f4f6",
"QtQtQtQtQtQtQtQtQtQtQtQtQtQtQtQtQtQtQtQt.#.a.b.c.dQtQtQtQtQtQtQt",
"QtQtQtQtQtQtQtQtQtQtQtQtQtQtQtQtQtQt.e.f.g.h.i.j.c.k.f.l.f.m.m.m",
".m.m.m.mQtQtQtQtQtQtQtQtQtQtQtQtQt.n.o.p.q.r.s.t.b.u.v.w.l.m.m.m",
".mQtQtQtQtQtQtQtQtQtQtQtQtQtQt.x.y.z.A.B.C.D.E.F.G.H.I.J.K.m.m.m",
".mQtQtQtQtQtQtQtQtQtQtQtQt.#.a.L.M.N.O.P.Q.R.S.T.I.U.U.V.W.m.m.m",
".mQtQtQtQtQtQt.X.Y.eQt.e.f.g.Z.0.1.2.3.4.5.6.7.U.U.U.U.8.X.m.m.m",
".mQtQtQtQt.x.y.9.p.o#..o.p.q###a#b#c#d#e#f.U.U.U#g#h#i#j#k.m.m.m",
".mQtQt#l#m.z#n#o#p#q#r#s.B.C.D#t#u#v#w.U.U.U#g#i#x#y#z#A.f.l.f.e",
".m.k.f.L#B#C#D#E#F#G#H#I.P#J#K#L#M.I.U.U#g#i#x#N#O#P#Q#R#S#T#U.a",
".m.a#V#W#X#Y#F#F#Z#0#1#2#3#4#5#6.U.U.U#h#7#y#O#8#9a.a#aaabacad.b",
".m.baeafag#F#Zahai#b#cajakal.U.U.U#g#iaman#P.7aoapaqarasatauav.a",
".m.bawaxay#0azaAaB#uaCaD.U.U.U#g#iaE.IaFaGaHaIaJaKaLaMaNaOaPaQ.k",
".m.bawaRaSaT#JaUaVaW.I.U.U.U#h#x#NaXaYaZa0a1a2a3a4a5a6a7a8a9b..m",
".m.bb#babbbcbdbe#6.U.U.U#g#ibfanbgbhbibjbkblbmbnbobpbqbrbsbt.m.m",
".m.bbubvbwbxbybz.U.U#g#iaEbAbBbCbDbEbFbGbHbIbJbKbLbMbNbObPbQ.m.m",
".m.bbRbSbTbUbV.U.U#h#x#NbWbXbYbZb0b1b2b3b4b5b6bMb7b8b9c.c#.m.m.m",
".mcacbcccdcecf#h#7bfcgchcicjckclcmcnbncobMcpcqcrcsctcucv.m.m.m.m",
".mcwcxcyczcAcBambAbBcCcDcEcFcGcHcIcJcKcLcpb7cMcNcOcPcQcR.m.m.m.m",
".mcScTcUcVcWcXaXbXcYcZc0c1cmc2b4c3c4b5c5c6c7c8c9d.d#daQt.m.m.m.m",
".mdbdcdddedfbB.7dgdhdidjdka5dldmdnbLdocqb7dpdqdrdsdtQtQt.m.m.m.m",
".mdudvdwdxdydzdAdBdCdDdEdFdGdmcodHc6c7dIdJdKdLaQdMdNQtQt.m.m.m.m",
".mdOdPdQdRdSdTdUdVdWbMdnbMcLcMdGcodXdYdZd0d##Ad1d2QtQtQt.m.m.m.m",
".md3d4d5d6d7d8d9e.e#cocpcqbpc4eaebecedee#RefegQtQtQtQtQt.m.m.m.m",
".meheiejekelemeneocLbKcLepc7dIeqereseteu.XdNQtQtQtQtQtQt.m.m.m.m",
".mevewexeyezeAeBepb5dHcoeCeDeEeFd#eGeHd2QtQtQtQtQtQtQtQt.m.m.m.m",
".meIeJeKeLeMeNeOboePeQeReSeTc.#ReU#lQtQtQtQtQtQtQtQtQtQt.m.m.m.m",
".meIeVd5eWeXeYcreZe0e1e2e3eteue4dNQtQtQtQtQtQt.m.m.m.m.m.m.m.m.m",
".meve5e6e7e8e9f.f#fafbfceGeHcRQtQtQtQtQtQtQtQt.m.m.m.m.m.m.m.m.m",
".mfdfefffgfhfifjfkfl#AeUfmQtQtQtQtQtQtQtQtQtQt.m.m.m.m.m.m.m.m.m",
".mfndOfofpfqfrfsftfue4QtQtQtQtQtQtQtQtQtQtQtQt.m.m.m.m.m.m.m.m.m",
".mfvfwfxfyfzaQbtfAcRQtQtQtQtQtQtQtQtQtQtQtQtQtQtQtQtQtQtQtQtQt.m",
".m.m.e#AfB#Ad1fm.m.m.m.m.m.m.m.m.m.m.m.m.m.m.m.mQtQtQtQtQtQtQtQt"};
