/* XPM */
static char * paypal_xpm[] = {
"121 44 525 2",
"  	c None",
". 	c #FFFFFF",
"+ 	c #FEFEFE",
"@ 	c #FFFEFF",
"# 	c #69839C",
"$ 	c #4E6C8B",
"% 	c #516E8D",
"& 	c #506E8D",
"* 	c #53718E",
"= 	c #54728E",
"- 	c #54728F",
"; 	c #587591",
"> 	c #577491",
", 	c #597693",
"' 	c #63809A",
") 	c #A9B9C7",
"! 	c #C2D2DF",
"~ 	c #638CAF",
"{ 	c #678FB1",
"] 	c #688FB1",
"^ 	c #6990B1",
"/ 	c #6B91B3",
"( 	c #6D94B4",
"_ 	c #6E93B4",
": 	c #6E94B5",
"< 	c #7196B6",
"[ 	c #98B3CA",
"} 	c #E5ECF1",
"| 	c #BACCDB",
"1 	c #8CAAC4",
"2 	c #8DABC4",
"3 	c #92AEC7",
"4 	c #9AB4CB",
"5 	c #8AA0B4",
"6 	c #7C94AA",
"7 	c #ADBECB",
"8 	c #E8EDF0",
"9 	c #A7B8C6",
"0 	c #F9FAFB",
"a 	c #B6C5D1",
"b 	c #002552",
"c 	c #00335E",
"d 	c #00325E",
"e 	c #00325D",
"f 	c #002956",
"g 	c #012E5A",
"h 	c #A6B7C6",
"i 	c #346996",
"j 	c #2A6292",
"k 	c #296192",
"l 	c #286192",
"m 	c #245D90",
"n 	c #1A558A",
"o 	c #618AAE",
"p 	c #F3F6F8",
"q 	c #155287",
"r 	c #265F90",
"s 	c #255E90",
"t 	c #165388",
"u 	c #C5D4E1",
"v 	c #E7ECF0",
"w 	c #A7B9C7",
"x 	c #859EB1",
"y 	c #8EA4B7",
"z 	c #204A6F",
"A 	c #E5EBEF",
"B 	c #7792A8",
"C 	c #00305C",
"D 	c #002553",
"E 	c #9CAFBF",
"F 	c #EEF2F6",
"G 	c #1B568A",
"H 	c #275F91",
"I 	c #41739D",
"J 	c #C0D1DE",
"K 	c #1D588C",
"L 	c #205A8D",
"M 	c #FCFDFD",
"N 	c #DBE2E8",
"O 	c #9DB1C0",
"P 	c #728EA5",
"Q 	c #8FA5B8",
"R 	c #C2CFD9",
"S 	c #2F5176",
"T 	c #002754",
"U 	c #00315D",
"V 	c #002B57",
"W 	c #FDFEFE",
"X 	c #B6C9D9",
"Y 	c #1F598D",
"Z 	c #235D8F",
"` 	c #1C578B",
" .	c #286191",
"..	c #286091",
"+.	c #225C8E",
"@.	c #9BB6CC",
"#.	c #89A7C2",
"$.	c #40729E",
"%.	c #FAFBFC",
"&.	c #F2F4F6",
"*.	c #E9EDF1",
"=.	c #F4F7F9",
"-.	c #F8F9FA",
";.	c #F4F6F8",
">.	c #FDFDFD",
",.	c #002A57",
"'.	c #19446A",
").	c #B1C1CD",
"!.	c #BAC9D4",
"~.	c #AABBC9",
"{.	c #6E89A1",
"].	c #05325D",
"^.	c #A0B3C3",
"/.	c #83A3BF",
"(.	c #276091",
"_.	c #215B8E",
":.	c #95B1C9",
"<.	c #C1D1DF",
"[.	c #A2BACF",
"}.	c #4C7BA3",
"|.	c #1F5A8D",
"1.	c #4676A0",
"2.	c #789BBA",
"3.	c #CBD6DF",
"4.	c #AEBFCC",
"5.	c #20486E",
"6.	c #00315C",
"7.	c #718EA5",
"8.	c #F3F5F7",
"9.	c #C3CFD9",
"0.	c #9BAFC0",
"a.	c #748FA7",
"b.	c #5A7894",
"c.	c #4E6C8A",
"d.	c #4A6988",
"e.	c #567390",
"f.	c #7590A7",
"g.	c #B1C0CD",
"h.	c #DBE3E9",
"i.	c #607D98",
"j.	c #54718E",
"k.	c #56728E",
"l.	c #D9E1E7",
"m.	c #748EA6",
"n.	c #526F8D",
"o.	c #55708E",
"p.	c #DDE5EA",
"q.	c #42739E",
"r.	c #9DB7CC",
"s.	c #265F91",
"t.	c #D6E1EA",
"u.	c #B6C8D9",
"v.	c #93B0C8",
"w.	c #789BB9",
"x.	c #7FA0BD",
"y.	c #ACC2D4",
"z.	c #E6EDF2",
"A.	c #FFFFFE",
"B.	c #1E598C",
"C.	c #BBCDDC",
"D.	c #89A1B5",
"E.	c #002E5A",
"F.	c #002856",
"G.	c #F6F8F9",
"H.	c #B2C2CF",
"I.	c #002855",
"J.	c #6C8AA2",
"K.	c #DCE3E9",
"L.	c #00214F",
"M.	c #002653",
"N.	c #002C58",
"O.	c #90A6B7",
"P.	c #617F99",
"Q.	c #00345F",
"R.	c #325276",
"S.	c #7C94AB",
"T.	c #002B58",
"U.	c #F0F3F5",
"V.	c #F9FBFC",
"W.	c #89A8C2",
"X.	c #306695",
"Y.	c #245D8F",
"Z.	c #3A6D99",
"`.	c #1A568A",
" +	c #185489",
".+	c #6B91B2",
"++	c #FDFDFE",
"@+	c #FEFEFF",
"#+	c #D7E1EA",
"$+	c #1D588B",
"%+	c #F4F6F9",
"&+	c #406081",
"*+	c #194168",
"=+	c #C6D2DB",
"-+	c #002F5A",
";+	c #869EB2",
">+	c #819BAF",
",+	c #002F5B",
"'+	c #6D869F",
")+	c #8BA2B5",
"!+	c #06355F",
"~+	c #E4EAEE",
"{+	c #002C59",
"]+	c #899FB3",
"^+	c #C7D6E2",
"/+	c #286092",
"(+	c #1B578B",
"_+	c #CBD9E4",
":+	c #4878A1",
"<+	c #326896",
"[+	c #E6ECF2",
"}+	c #296191",
"|+	c #3A6D9A",
"1+	c #9BB5CB",
"2+	c #346997",
"3+	c #02315C",
"4+	c #5B7894",
"5+	c #94A9BB",
"6+	c #002D59",
"7+	c #002654",
"8+	c #BFCCD7",
"9+	c #587592",
"0+	c #00335D",
"a+	c #00305B",
"b+	c #083560",
"c+	c #01315C",
"d+	c #002352",
"e+	c #D4DDE4",
"f+	c #BECBD6",
"g+	c #ECF0F3",
"h+	c #305578",
"i+	c #153E66",
"j+	c #97B1C9",
"k+	c #205B8D",
"l+	c #245C8F",
"m+	c #5F89AD",
"n+	c #C4D3E0",
"o+	c #1B568B",
"p+	c #2B6292",
"q+	c #2A6191",
"r+	c #88A7C2",
"s+	c #5984AA",
"t+	c #6C92B3",
"u+	c #E0E7EC",
"v+	c #9EB2C1",
"w+	c #D8E0E6",
"x+	c #012D59",
"y+	c #04325C",
"z+	c #7A8EA5",
"A+	c #4D6D8B",
"B+	c #9FB2C1",
"C+	c #F7F8FA",
"D+	c #E0E6EB",
"E+	c #164067",
"F+	c #7F99AE",
"G+	c #F1F4F6",
"H+	c #002755",
"I+	c #C0CDD8",
"J+	c #9BAFBF",
"K+	c #C0CED8",
"L+	c #517FA6",
"M+	c #3F719C",
"N+	c #628AAF",
"O+	c #215B8D",
"P+	c #A8BFD2",
"Q+	c #D3DFE8",
"R+	c #42749E",
"S+	c #9FB8CD",
"T+	c #CEDBE6",
"U+	c #F1F5F8",
"V+	c #F6F8FA",
"W+	c #6E94B4",
"X+	c #4A7AA2",
"Y+	c #B1C5D7",
"Z+	c #9DB1C1",
"`+	c #7B95AB",
" @	c #FAFBFB",
".@	c #FCFCFD",
"+@	c #B7C5D1",
"@@	c #617C97",
"#@	c #758EA5",
"$@	c #7894AA",
"%@	c #7F98AE",
"&@	c #103B64",
"*@	c #F5F7F9",
"=@	c #042F5B",
"-@	c #466787",
";@	c #245E8F",
">@	c #376B98",
",@	c #F0F4F7",
"'@	c #D8E2EB",
")@	c #9EB8CD",
"!@	c #356A98",
"~@	c #2A6192",
"{@	c #D0DCE7",
"]@	c #4B7AA3",
"^@	c #EAEFF4",
"/@	c #1B578A",
"(@	c #EAEFF3",
"_@	c #51708D",
":@	c #456685",
"<@	c #AFC0CC",
"[@	c #405F81",
"}@	c #69869F",
"|@	c #567490",
"1@	c #002A56",
"2@	c #EDF1F4",
"3@	c #E0E8EF",
"4@	c #296091",
"5@	c #1D588A",
"6@	c #C2D1DF",
"7@	c #AFC4D5",
"8@	c #6890B2",
"9@	c #B2C6D7",
"0@	c #2B6293",
"a@	c #1B436A",
"b@	c #F0F4F6",
"c@	c #A8B9C7",
"d@	c #627F9A",
"e@	c #4D6B89",
"f@	c #426182",
"g@	c #38597C",
"h@	c #315478",
"i@	c #2A4E73",
"j@	c #194169",
"k@	c #E8EDF1",
"l@	c #6A869F",
"m@	c #3A5A7D",
"n@	c #C6D3DB",
"o@	c #8098AD",
"p@	c #A7BED1",
"q@	c #CAD8E4",
"r@	c #5C86AB",
"s@	c #5380A8",
"t@	c #4D7CA4",
"u@	c #4777A1",
"v@	c #3E709D",
"w@	c #265E90",
"x@	c #9FB8CE",
"y@	c #608AAD",
"z@	c #F2F5F7",
"A@	c #6F87A0",
"B@	c #69829B",
"C@	c #0E3963",
"D@	c #0A3761",
"E@	c #143E67",
"F@	c #00345E",
"G@	c #163E66",
"H@	c #628BAF",
"I@	c #DAE4EC",
"J@	c #2F6595",
"K@	c #D3DFE9",
"L@	c #A6BDD2",
"M@	c #B0C1CD",
"N@	c #002453",
"O@	c #002452",
"P@	c #0C3761",
"Q@	c #98ABBC",
"R@	c #21496F",
"S@	c #305277",
"T@	c #5B7995",
"U@	c #718DA5",
"V@	c #849DB1",
"W@	c #2F577A",
"X@	c #3A5A7C",
"Y@	c #DEE5EA",
"Z@	c #EFF3F5",
"`@	c #839AAF",
" #	c #195589",
".#	c #255D8F",
"+#	c #84A4BF",
"@#	c #D2DEE8",
"##	c #88A8C2",
"$#	c #336997",
"%#	c #648CB0",
"&#	c #81A2BE",
"*#	c #8FACC5",
"=#	c #87A6C1",
"-#	c #215C8E",
";#	c #FDFEFD",
">#	c #D5E0E9",
",#	c #67839D",
"'#	c #DFE6EB",
")#	c #E3E9ED",
"!#	c #E5EBEE",
"~#	c #F8FAFB",
"{#	c #7089A1",
"]#	c #7D98AD",
"^#	c #7993AA",
"/#	c #A1B5C4",
"(#	c #496987",
"_#	c #F7F9FA",
":#	c #EBF1F5",
"<#	c #E5ECF2",
"[#	c #F2F5F8",
"}#	c #D1DDE7",
"|#	c #D2DEE7",
"1#	c #F3F7F9",
"2#	c #40719D",
"3#	c #CCD9E5",
"4#	c #315377",
"5#	c #3D5D7F",
"6#	c #416181",
"7#	c #BBC9D4",
"8#	c #21486D",
"9#	c #B8CADA",
"0#	c #19558A",
"a#	c #E3EAF0",
"b#	c #678EB1",
"c#	c #BFCFDE",
"d#	c #C9D7E3",
"e#	c #7095B5",
"f#	c #93AFC7",
"g#	c #5683A8",
"h#	c #91A8BA",
"i#	c #264B70",
"j#	c #F6F9FA",
"k#	c #587793",
"l#	c #8BA1B4",
"m#	c #7599B8",
"n#	c #2F6594",
"o#	c #356997",
"p#	c #7095B6",
"q#	c #AEC3D5",
"r#	c #5E88AC",
"s#	c #245E90",
"t#	c #99B3CB",
"u#	c #C3D0D9",
"v#	c #CFD9E1",
"w#	c #D3DDE3",
"x#	c #E6EBEF",
"y#	c #F3F6F7",
"z#	c #2A5075",
"A#	c #96ACBD",
"B#	c #1C456B",
"C#	c #2C6392",
"D#	c #7E9FBC",
"E#	c #A3BBD0",
"F#	c #1E588C",
"G#	c #E4EBF0",
"H#	c #336896",
"I#	c #CBD8E4",
"J#	c #7E98AD",
"K#	c #04335E",
"L#	c #E9EEF1",
"M#	c #395A7B",
"N#	c #426081",
"O#	c #24496F",
"P#	c #4F6E8C",
"Q#	c #CAD5DE",
"R#	c #20598D",
"S#	c #B4C8D9",
"T#	c #3B6E9A",
"U#	c #4E7CA4",
"V#	c #F1F4F7",
"W#	c #225B8E",
"X#	c #456585",
"Y#	c #4B6A88",
"Z#	c #1D456C",
"`#	c #093560",
" $	c #335C7E",
".$	c #97ACBD",
"+$	c #597692",
"@$	c #E7EDF2",
"#$	c #235C8F",
"$$	c #1D598C",
"%$	c #4F7DA5",
"&$	c #1A4067",
"*$	c #001F4E",
"=$	c #97ACBE",
"-$	c #E2E9ED",
";$	c #0E3661",
">$	c #7189A2",
",$	c #5E7A96",
"'$	c #002150",
")$	c #E1E8EC",
"!$	c #143D66",
"~$	c #04305B",
"{$	c #A8BED2",
"]$	c #135086",
"^$	c #5682A9",
"/$	c #6A91B2",
"($	c #F0F3F7",
"_$	c #CFDCE6",
":$	c #0B4B82",
"<$	c #A6BCD1",
"[$	c #175489",
"}$	c #87A7C1",
"|$	c #EBEFF3",
"1$	c #A8B8C7",
"2$	c #66839C",
"3$	c #63819B",
"4$	c #95A9BA",
"5$	c #EEF2F4",
"6$	c #DDE4EA",
"7$	c #FBFCFC",
"8$	c #9BAEBF",
"9$	c #E9EEF3",
"0$	c #EBF0F4",
"a$	c #CCD9E4",
"b$	c #83A4BF",
"c$	c #6C92B4",
"d$	c #6F95B6",
"e$	c #91ADC6",
"f$	c #E7EEF3",
"g$	c #FBFCFD",
"h$	c #DDE6EE",
"i$	c #DFE7EF",
"j$	c #E2E9F0",
"k$	c #EFF3F7",
"l$	c #EFF3F6",
"m$	c #0F3B63",
"n$	c #294F74",
"o$	c #778FA6",
"p$	c #DFE7EB",
"q$	c #E1E7EC",
"r$	c #738CA4",
"s$	c #295074",
"t$	c #103A63",
"u$	c #91A6B8",
"v$	c #93A7B8",
"w$	c #92A8BA",
"x$	c #8DA4B7",
"y$	c #8AA0B3",
"z$	c #FEFFFF",
". . . . . . . . . . . . . . . . . . . . . . . . . . . . . . . . . . . . . . . . . . . . . . . . . . . . . . . . . . . . . . . . . . . . . . . . . . . . . . . . . . . . . . . . . . . . . . . . . . . . . . . . . . . . . . . . . . . . . . . . . ",
". . . . . . . . . . . . . . . . . . . . . . . . . . . . . . . . . . . . . . . . . . . . . . . . . . . . . . . . . . . . . . . . . . . . . . . . . . . . . . . . . . . . . . . . . . . . . . . . . . . . . . . . . . . . . . . . . . . . . . . . . ",
". . . . . . . . . . . . . . . . . . . . . . . . . . . . . . . . . . . . . . . . . . . . . . . . . . . . . . . . . . . . . . . . . . . . . . . . . . . . . . . . . . . . . . . . . . . . . . . . . . . . . . . . . . . . . . . . . . . . . . . . . ",
". . . . . . . . . . . . . . . . . . . . . . . . . . . . . . . . . . . . . . . . . . . . . . . . . . . . . . . . . . . . . . . . . . . . . . . . . . . . . . . . . . . . . . . . . . . . . . . . . . . . . . . . . . . . . . . . . . . . . . . . . ",
". . . . . . . . . . . . . . . . . . . . . . . . . . . . . . . . . . . . . . . . . . . . . . . . . . . . . . . . . . . . . . . . . . . . . . . . . . . . . . . . . . . . . . . . . . . . . . . . . . . . . . . . . . . . . . . . . . . . . . . . . ",
". . . . . . . . . . . . . . . . . . . . . . . . . . . . . . . . . . . . . . . . . . . . . . . . . . . . . . . . . . . . . . . . . . . . . . . . . . . . . . . . . . . . . . . . . . . . . . . . . . . . . . . . . . . . . . . . . . . . . . . . . ",
". . . . . . . . . . . . . . . . . . . . . . . . . . . . . . . . . . . . . . . . . . . . . . . . . . . . . . . . . . . . . . . . . . . . . . . . . . . . . . . . . . . . . . . . . . . . . . . . . . . . . . . . . . . . . . . . . . . . . . . . . ",
". . . . . . . . . . . . . . . . . . . . . . . . . . . . . . . . . . . . . . . . . . . . . . . . . . . . . . . . . . . . . . . . . . . . . . . . . . . . . . . . . . . . . . . . . . . . . . . . . . . . . . . . . . . . . . . . . . . . . . . . . ",
". . . . . . . . . . + . . . . . . . . . . . . @ . . . . . . . . . . . . . . . . . . . . . . . . . . . . . . . . . . . . . . . . . . . . . . . . . . . . . . . . . . . . . . . . . . . . . . . . . . . . . . . . . . . . . . + . . . . . . . . . . ",
". . . . . . . . . . . # $ $ % & * = - ; > , ' ) . . . . . . . . . . . . . . . . . . . . . . . . . . . . . . . . . . . . . . . . . . . ! ~ ~ { ] ^ / / ( _ : < [ } . + . . . . . . . . . . . . . . . . . . . . . . | 1 2 3 4 . 5 6 7 8 9 0 . . . . ",
". . . . . . . . . + a b c c c c c c c d d d e f g h . . . . . . . . . . . . . . . . . . . . . . . . . . . . . . . . . . . . . . . . . i j k k k k l k l l l l m n o + + . . . . . . . . . . . . . . . . . . . . p q r r s t u v w x y z A . . . . ",
". . . . . . . . . . B C c c c c c c c c c c c e c D E . . . . . . . . . . . . . . . . . . . . . . . . . . . . . . . . . . . . . . . F G k k k k k k k k k k k k k H I . . . . . . . . . . . . . . . . . . . . + J K k k k L M N O P * Q R . . . . ",
". . . . . . . . . . S c c c e c f T f U c e c c c c V W . . . . . . . . . . . . . . . . . . . . . . . . . . . . . . . . . . . . . + X Y k k k k Z ` K Z k  .k k k ..+.@.. . . . . . . . . . . . . . . . . . . . #.H k k k $.. %.&.*.=.-.;.. . . . ",
". . . . . . . . . >.,.c c c c '.).!.~.{.].e e c c c ,.^.. . . . . . . . . . . + . . . . . + . . . . + . . . . . . . + . . . . . . . /.(.k k k _.:.u <.[.}.|.k k k k k 1.. . . . + . . . . . . . . . . . . . . . 1.k k k ..2.. . . . . . . . . . . ",
". . . . . . . . . 3.b e c c f 4.+ . + . . 5.c c c c 6.7.. . 8.9.0.a.b.c.d.e.f.g.0 . . . . h.i.b.j.k.l.. . . . . . . . m.j.c.n.o.p.. q.k k k k }.. . . . . r._...k k k s.. + . t.u.v.w.{ o ] x.y.z.. + . . . . A.L k k k B.C.+ . . . . . . . . . . ",
". . . . . . . . . D.E.c c c F.G.. . . . + H.I.c c c 6.J.. K.L.M.N.C c c c c C I.I.O.. + . P.U c c Q.R.. . . . . . . S.T.c c c f U.V.B.k k k H W.. . . . . . X.k k k k Y.. . Z.`.|.s ..k k k (._. +.++++ . . @+#+`...k k $+%+. . . . . . . . . . . ",
". . . . . . . . . &+c c c c *+. . . . . . =+D c c c -+;+. >+,+c e c c c c c c c c I.'+. . )+E.c c c !+. . . . . + ~+M.c c e {+]+. ^+` /+k ..(+_++ . . . . . :+k k k k <+. [+`.}+l k k k k k l k k H |+. + . . 1+Y.k k k 2+. . . . . . . . . . . . ",
". . . . . . . . . 3+c c c d 4+. . . . . . 5+6+c c e 7+8+. 9+0+T.D I.a+b+c+7+c e c c d+e++ f+7+c c c 7+g+. . . . . h+c c c c i+. . j+s k k k k++ . . . . + + l+k k k k m+. n+K Z o+(+Z p+q+$+s ..k ..s r+. . . s+k k k k t+. . . . . . . . . . . . ",
". . . . . . . . u+D c c c T.v+. . . + . w+x+c c c c y+. . z+A+B+e+C+. . . D+E+c c c ,+F+. G+H+c c c M.I+. . . . J+f e c e M.K++ . L+k k k k M+. . . . . . N+r /+k ..O+P+. Q+R+S+T+U+. . . V+W+r k k k X+. . . p+k k k L Y+. . . . . . . . . . . . ",
". . . . . . . . Z+T.c c c 6+`+ @.@*.+@@@I.c c c e E.#@. + . . . . . . . . . $@C c c ,+%@. . &@c c c T.^.. . + *@=@c c c 0+-@. . . ;@k k k k >@,@++V+'@)@!@s ..k k ~@j . . . . . . . . . . + {@`.k k k ]@. . ^@/@k k k `.(@. . . . . . . . . . . . ",
". . . . . . . . _@c c c c c N.I.f M.H+e c c c e c E+. + . . + . . . . . . . :@c c c I.<@+ . [@c c c U }@. . . |@6.c c c 1@2@+ . 3@`.4@k k ..../@|.5@`.Y.k ..k k k `.6@. . . + . . . . . . . 7@_.k k k 8@. . 9@L k k k 0@. . . . . . . . . . . . . ",
". . . . . . . . a@c c c c c e c c c c c c c c ,+i+b@+ + . .@c@d@e@f@g@h@i@j@,+e c c D k@. . l@U c c c m@. + n@D 0+c e 6+o@. . . p@+.k k k k k k k k ..k k k ..~@ +P+. . . . q@r+] r@s@t@u@v@w@k k k Z x@. . < l k k k y@. . . . . . . . . . . . . ",
". . . . . . . z@T c c c c c c e c c c c c {+T A@+ + + . B@T.f e c Q.c e ,+0+d c c c C@. . + w 1@c c c D@. . E@F@c c F@G@. . . . H@k k k k ..k }+k /+k k k H `.q.I@. . . 7@J@/@H k j j ..H s.k k k ..`.K@. . M+k k k +.L@. . . . . . . . . . . . . ",
". . . . . . + M@I.c c c c T T N@O@D I.P@f@Q@G+. + + . R@-+c e C I.S@T@U@V@W@e c c c X@. . . Y@D e c c M.Z@`@6+e c e 7+R + . . . X.k k k }++.$+o+ #n ` .#q.+#@#. + . . ##K k ..k ` $#%#&#*#=#-#4@k k -#. . ;#L k k ..`.>#. . . . . . . . . . . . . ",
". . . . . . . ,#e c c c f '#U.)#'#!#~#. . . . . . . {#,+e e E.|@;.. . . . ]#a+c c C ^#. . . . a+c c c I./#,.c c c e (#. . . . ,@(+k k k s =#_#:#<#[+[#. . . + . . + }# #k k k p+|#. . . . 1#(+k k k 2#. + 3#(+/+k k s . . . . . . . . . . . . . . ",
". . . . . . . 4#c c c c 5#. . . . . . . . . . . . . E.c c c D@. + . . . . 6#c c c T 7#+ . . . 8#c c c c f c c c c H+=.+ . . + 9#Y k k 4@0#a#. . . . . . . . . . . . b#k k k B.c#+ . . . + d#` k k l e#. . f#s k k k g#. . . . . . . . . . . . . . ",
". . . . . . . N.c c c 6+h#. . . . . . . . . . . . )#D 0+c c i#. . . . + j#I.c c c T 8.. . . . k#c c c c c c c e N.l#. . . . . m#/+k k k n#. . . . . . . . . . . . . o#k k k n '@+ . . . . p#..k k O+q#. . r#k k k s#t#. . . . . . . . . . . . . . ",
". . . . . + u#D e c e b v#. . . . . . . . . . . . w#D c c c F.x#. . . y#z#e c c c &@. . . . . A#{+c c c c c c F@B#. . . . . . 2#k k k k : . . . . . . . . . . . . . C#k k k r D#. . . . E#F#l k }+`.G#. . H#k k ..(+I#+ . . . . . . . . . . . . . ",
". . . . . . J#,+c c c K#. . . . . . . . . . . . . L#b c c c c T.M#N#O#I.U e c c c P#. . . . . v#D e c c c c c D Q#+ . . . . M R#k k k Y S#+ . . . . . . . . . . . . |+k k k k +.T#r@U#~@L k k k k ... . V#` k k k W#. . . . . . . . . . . . . . . ",
". . . . . . X#c c c c Y#. . . . . . . . . . . . . . Z#Q.e c c c c c C `# $U c d N..$. . . . .  @f c c c c c 6.+$. . . . . + ^+` 4@k k `.@$. . . . . . . . . . . . . *##$..k k ..k k k $$b#+.k k k U#. + n+` k k k %$. . . . . . . . . . . . . . . ",
". . . . . . &$7+D D *$=$. . . . . . . . . . . . . + -$;$f e d e {+V >$. ,$O@D D '$)$. . . . . . !$c c c c c ~$0 + . . . . . {$]$`.`.`.T#. . . . . . . . . . . . . + . ^$`.H l l w@G /$($_$:$`.`.t E#. . <$t ` G [$}$. . . . . . . . . . . . . . . ",
". . . . . + G.~+x#x#|$. @+. . . . . . . . . . . . . + . 1$2$+$3$4$*@. . 5$w+l.6$7$. . . . . . . , c c c e ,.8$. . . . . . + . ^@9$0$^@@ + . . . . . . . . . . . . . + . a$b$c$d$e$f$. + g$h$i$j$k$. + + . V+*@U+l$. + . . . . . . . . . . . . . . ",
". . . . . . . . . . . . . . . . . . . . . . . . . . . . @ . . . . . . . . . . . . . . . . . . . m$c c c c n$. . . . . . . . . . . . . . . . . . . . . . . . . . . . . . + . . . . + . . . . . . . . . . . . . . . . . . . . . . . . . . . . . . . ",
". . . . . . . . . . . . . . . . . . . . . . . . . . . . . . . . . . . . . . . . . . . . . . . o$E.e c c D p$+ . . . . . . . . . . . . . . . . . . . . . . . . . . . . . . . . . . . . . . . . . . . . . . . . . . . . . . . . . . . . . . . . . . ",
". . . . . . . . . . . . . . . . . . . . . . . . . . . . . . . . . . . . . . . . . . . . . + q$7+c c e E.r$. . . . . . . . . . . . . . . . . . . . . . . . . . . . . . . . . . . . . . . . . . . . . . . . . . . . . . . . . . . . . . . . . . . . ",
". . . . . . . . . . . . . . . . . . . . . . . . . . . . . . . . . . . . . . . . . . . . . . s$c c c F@t$. + . . . . . . . . . . . . . . . . . . . . . . . . . . . . . . . . . . . . . . . . . . . . . . . . . . . . . . . . . . . . . . . . . . . ",
". . . . . . . . . . . . . . . . . . . . . . . . . . . . . . . . . . . . . . . . . . . . . u$V e c c N@R + . . . . . . . . . . . . . . . . . . . . . . . . . . . . . . . . . . . . . . . . . . . . . . . . . . . . . . . . . . . . . . . . . . . . ",
". . . . . . . . . . . . . . . . . . . . . . . . . . . . . . . . . . . . . . . . . . . . V+D E.6+E.T.i.. . . . . . . . . . . . . . . . . . . . . . . . . . . . . . . . . . . . . . . . . . . . . . . . . . . . . . . . . . . . . . . . . . . . . . ",
". . . . . . . . . . . . . . . . . . . . . . . . . . . . . . . . . . . . . . . . . . . . -.v$w$h#x$y$;#+ . . . . . . . . . . . . . . . . . . . . . . . . . . . . . . . . . . . . . . . . . . . . . . . . . . . . . . . . . . . . . . . . . . . . . ",
". . . . . . . . . . . . . . . . . . . . . . . . . . . . . . . . . . . . . . . . . . . . . . . . . . z$. . . . . . . . . . . . . . . . . . . . . . . . . . . . . . . . . . . . . . . . . . . . . . . . . . . . . . . . . . . . . . . . . . . . . . ",
". . . . . . . . . . . . . . . . . . . . . . . . . . . . . . . . . . . . . . . . . . . . . . . . . . . . . . . . . . . . . . . . . . . . . . . . . . . . . . . . . . . . . . . . . . . . . . . . . . . . . . . . . . . . . . . . . . . . . . . . . ",
". . . . . . . . . . . . . . . . . . . . . . . . . . . . . . . . . . . . . . . . . . . . . . . . . . . . . . . . . . . . . . . . . . . . . . . . . . . . . . . . . . . . . . . . . . . . . . . . . . . . . . . . . . . . . . . . . . . . . . . . . ",
". . . . . . . . . . . . . . . . . . . . . . . . . . . . . . . . . . . . . . . . . . . . . . . . . . . . . . . . . . . . . . . . . . . . . . . . . . . . . . . . . . . . . . . . . . . . . . . . . . . . . . . . . . . . . . . . . . . . . . . . . ",
". . . . . . . . . . . . . . . . . . . . . . . . . . . . . . . . . . . . . . . . . . . . . . . . . . . . . . . . . . . . . . . . . . . . . . . . . . . . . . . . . . . . . . . . . . . . . . . . . . . . . . . . . . . . . . . . . . . . . . . . . "};
