/* XPM */
static char *printIcon[]={
"32 32 332 2",
"Qt c None",
".l c #000000",
".m c #000000",
".O c #000000",
"cA c #000000",
"a. c #000000",
".C c #000000",
".U c #000000",
"b. c #000000",
"cc c #000000",
"dh c #000000",
"#W c #5f5f5f",
".0 c #000000",
"cB c #000000",
".I c #000000",
"b5 c #252525",
".w c #000000",
".D c #363651",
"#o c #000000",
".# c #5f5f97",
".k c #2d2d43",
"df c #000000",
"#E c #4a4a4a",
".V c #4a4a76",
"c6 c #000000",
".r c #000000",
"#a c #000000",
"#V c #3d3d3d",
"cn c #000000",
".N c #000000",
"cQ c #000000",
"aJ c #000000",
"di c #000000",
"av c #5b5b5b",
"#X c #5e5e5e",
"cC c #000000",
"a0 c #000000",
"da c #000000",
"dj c #000000",
".B c #000000",
"dg c #000000",
".T c #000000",
"#9 c #333333",
"a9 c #000000",
"bh c #000000",
"a# c #5c5c5c",
"cR c #070707",
".a c #626294",
"b4 c #000000",
"au c #2b2b2b",
"c5 c #000000",
"cP c #000000",
"cb c #000000",
"d# c #000000",
"cm c #000000",
"cd c #0f0f0f",
".P c #5b5b89",
"cz c #000000",
".Z c #000000",
"#D c #555555",
"c7 c #111111",
".b c #626292",
"bY c #3e3e3e",
"bO c #424242",
"bJ c #444444",
".c c #616190",
".d c #a9a9c2",
"by c #474747",
"#b c #5f5f8e",
"de c #000000",
".x c #565682",
"co c #171717",
"c4 c #000000",
"db c #131313",
".H c #1e1e2d",
"d. c #000000",
"cO c #000000",
"cy c #000000",
"b6 c #303030",
"dd c #000000",
".v c #373753",
"aQ c #2f2f2f",
"aK c #575757",
".4 c #191927",
"c3 c #040404",
"bi c #4a4a4a",
".n c #606091",
"c9 c #020202",
".5 c #616190",
"cD c #212121",
".J c #5e5e8d",
"cN c #080808",
"cY c #0c0c0c",
".e c #9595b6",
"aR c #555555",
"cx c #0b0b0b",
"#C c #424242",
"b# c #4e4e4e",
"a1 c #515151",
".f c #9494b4",
".g c #a0a0bd",
"cl c #0f0f0f",
"## c #27273d",
"dc c #161616",
"c8 c #1b1b1b",
"#U c #676767",
"cX c #151515",
".M c #373752",
"cS c #242424",
".h c #bfbfd4",
"#Y c #8a8a8a",
".j c #9c9cba",
"aZ c #333333",
"c2 c #191919",
"bX c #272727",
"bN c #2a2a2a",
"bI c #2c2c2c",
"bx c #2d2d2d",
"bg c #2f2f2f",
"a8 c #303030",
"ce c #2e2e2e",
"#p c #868686",
"cM c #2e2e2e",
"b3 c #313131",
"#F c #8b8b8b",
".1 c #6f73a2",
"cW c #242424",
"cw c #3e3e3e",
".q c #8384a4",
"cZ c #2f2f33",
"aI c #515151",
".S c #5f6288",
"ca c #5f5f5f",
"cp c #323232",
"ck c #6c6c6c",
".A c #7a7e9e",
"aa c #777777",
"#n c #7e7e7e",
".s c #7576a2",
"c1 c #616161",
"#8 c #777777",
"at c #747474",
"b7 c #555555",
"cE c #404040",
"cL c #7e7e7e",
"bV c #333333",
"cV c #353535",
"cg c #3d3d3d",
"cT c #4d4d4d",
"cG c #4d4d50",
"bU c #4e4e4e",
"ch c #505050",
"b9 c #575757",
"cU c #5c5c5c",
"c. c #5f5f5f",
"bd c #636363",
"be c #656565",
"bR c #666666",
"cH c #666680",
"b8 c #6d6d6d",
"ct c #6d6d7a",
"bl c #6e6e6e",
"c# c #6f6f6f",
"bs c #707070",
"b2 c #717171",
"a7 c #737373",
"br c #747474",
"bQ c #757575",
"bC c #767676",
"bH c #76af59",
"ba c #777777",
"bW c #787878",
"bf c #797979",
"bw c #79bf56",
"bS c #7a7a7a",
".E c #7d80ac",
"b1 c #7e7e7e",
"bv c #7e9e6e",
"bc c #808080",
"bG c #80a070",
"bM c #818181",
"cq c #828282",
"bE c #838383",
"b0 c #848484",
"cs c #8686ad",
"aP c #888888",
"aY c #898989",
"ai c #8a8a8a",
".Y c #8a95bf",
"bt c #8b8b8b",
".W c #8b95bf",
"aw c #8d8d8d",
"#2 c #8e8e8e",
"bq c #8f8f8f",
"bT c #909090",
"bL c #929292",
"cJ c #9292b8",
".3 c #92a2cc",
"cI c #9393c2",
"ah c #949494",
"ab c #969696",
"ac c #979797",
"bk c #999999",
"#i c #99bcff",
"aA c #9a9a9a",
"ae c #9b9b9b",
"#. c #9bbae6",
"#3 c #9d9d9d",
"bD c #9e9e9e",
"#1 c #9f9f9f",
"#h c #9fc2ff",
"#B c #a0a0a0",
"#4 c #a1a1a1",
"#R c #a2a2a2",
"#g c #a2c5ff",
"aj c #a3a3a3",
"bp c #a4a4a4",
"bm c #a5a5a5",
"#f c #a5c8ff",
"cv c #a6a6a6",
"c0 c #a6a6b0",
"#s c #a6b3ff",
"bo c #a7a7a7",
"bn c #a8a8a8",
".Q c #a8b7d9",
"#e c #a8ccff",
"bB c #a9a9a9",
"ad c #aaaaaa",
"#d c #aad0ff",
"#S c #ababab",
"bu c #acacac",
"#j c #accaff",
"#0 c #adadad",
"#r c #adb6e6",
"#c c #add6ff",
"bb c #aeaeae",
"cr c #aeaebb",
"ag c #afafaf",
"af c #b0b0b0",
".9 c #b0d7ff",
"#T c #b1b1b1",
"#M c #b2b2b2",
".G c #b2bcd9",
".6 c #b2d4f9",
"a4 c #b3b3b3",
"#q c #b3b3b9",
".i c #b3b3cc",
"a6 c #b4b4b4",
"ar c #b5b5b5",
".8 c #b5daff",
"#Z c #b6b6b6",
"bj c #b7b7b7",
".7 c #b7dbff",
"a5 c #b8b8b8",
".y c #b8bfd9",
"#N c #b9b9b9",
"#t c #b9c5ff",
"#k c #b9d3ff",
"cf c #bababa",
"aM c #bbbbbb",
"bF c #bcbcbc",
"ak c #bdbdbd",
"aG c #bebebe",
".2 c #bedfff",
"#O c #bfbfbf",
"cF c #c0c0c0",
"#L c #c1c1c1",
"aX c #c3c3c3",
"#7 c #c5c5c5",
"#P c #c6c6c6",
"#l c #c6d4f2",
"#K c #c7c7c7",
"as c #c8c8c8",
".X c #c8e4ff",
"aN c #cacaca",
".K c #cadbf2",
"bz c #cbcbcb",
"cj c #cccccc",
"#m c #ccccd6",
"#u c #ccd6ff",
"#Q c #cdcdcd",
"aT c #cecece",
"aO c #cfcfcf",
".R c #cfe7ff",
"aH c #d0d0d0",
"ay c #d1d1d1",
"aS c #d2d2d2",
"#A c #d3d3d3",
"a3 c #d4d4d4",
"cK c #d4d4da",
"#z c #d5d5d5",
"ax c #d6d6d6",
"a2 c #d7d7d7",
"aW c #d8d8d8",
"aL c #d9d9d9",
".L c #d9ecff",
"#J c #dadada",
"aF c #dbdbdb",
"#6 c #dedede",
"#w c #dee3f1",
"az c #dfdfdf",
".o c #dfe1ec",
".u c #dfe6f2",
"#v c #dfe6ff",
"#y c #e0e0e0",
".F c #e0f0ff",
"aV c #e1e1e1",
"#5 c #e2e2e2",
"aU c #e3e3e3",
"bA c #e5e5e5",
"aq c #e6e6e6",
"ap c #e7e7e7",
"ao c #e8e8e8",
"#x c #eaeaea",
".z c #eaf5ff",
"an c #ebebeb",
"am c #ededed",
"al c #eeeeee",
"aE c #efefef",
"aD c #f1f1f1",
".t c #f1f8ff",
"aC c #f2f2f2",
"cu c #f3f3f3",
"aB c #f4f4f4",
"bK c #f6f6f6",
"#G c #f7f7f7",
"#H c #f8f8f8",
"#I c #fafafa",
"bP c #fbfbfb",
".p c #fbfdff",
"bZ c #fefefe",
"ci c #ffffff",
"QtQtQt.#.a.b.c.d.e.f.g.h.i.i.i.j.k.lQtQtQtQtQtQtQtQtQtQtQtQtQtQt",
"QtQtQt.m.n.o.p.p.p.p.p.p.p.p.p.p.q.r.lQtQtQtQtQtQtQtQtQtQtQtQtQt",
"QtQtQtQt.k.s.t.t.t.t.t.t.t.t.t.t.u.v.wQtQtQtQtQtQtQtQtQtQtQtQtQt",
"QtQtQtQt.l.x.y.z.z.z.z.z.z.z.z.z.z.A.B.CQtQtQtQtQtQtQtQtQtQtQtQt",
"QtQtQtQtQt.D.E.F.F.F.F.F.F.F.F.F.F.G.H.IQtQtQtQtQtQtQtQtQtQtQtQt",
"QtQtQtQtQt.l.J.K.L.L.L.L.L.L.L.L.L.K.M.N.OQtQtQtQtQtQtQtQtQtQtQt",
"QtQtQtQtQtQt.P.Q.R.R.R.R.R.R.R.R.R.R.S.T.UQtQtQtQtQtQtQtQtQtQtQt",
"QtQtQtQtQtQt.V.W.X.X.X.X.X.X.X.X.X.X.Y.Z.0QtQtQtQtQtQtQtQtQtQtQt",
"QtQtQtQtQtQt.m.1.2.2.2.2.2.2.2.2.2.2.3.4.wQtQtQtQtQtQtQtQtQtQtQt",
"QtQtQtQtQtQtQt.5.6.7.7.7.7.7.7.7.8.9#.###a.OQtQtQtQtQtQtQtQtQtQt",
"QtQtQtQtQtQtQt#b#.#c#d#e#f#g#h#i#j#k#l#m#n#oQtQtQtQtQtQtQtQtQtQt",
"QtQtQtQtQtQt#p#q#r#s#s#t#u#v#w#x#y#z#A#z#B#C#D#E.mQtQtQtQtQtQtQt",
"QtQtQtQtQtQt#F#G#H#I#J#K#L#M#N#O#P#Q#A#A#R#S#T#R#U#V.mQtQtQtQtQt",
"QtQtQtQt#W#X#Y#x#x#x#Z#S#M#N#O#0#1#2#3#4#L#5#6#Z#7#8#9a.QtQtQtQt",
"QtQtQta#aaabacadaeafagahaiabajak#zalaman#xaoapaqarasatau.CQtQtQt",
"QtQtavaw#JaxayaxazafaAayaBaCaDaEalaman#xaoapaqaFaG#SaHaIaJ.OQtQt",
"QtQtaKaL#6#JaxayaHaE#AaMaCaDaEalaman#xazaN#Z#TaGaO#y#6aPaQ.wQtQt",
"QtQtaRaq#5#6#JaxayaOaEay#7aEalaoaSak#MaMaT#yaUaVaW#QaXaYaZa0.CQt",
"QtQta1a2aq#5#6#Jaxaya3aD#O#Na4a5ayaUapaqaVaOaX#Z#Za6#4a7a8a9b.Qt",
"QtQtb#baa5aq#5#6#Jaxay#6al#5an#xao#J#Kar#0afbbacbcbdbebfbgbhb.Qt",
"QtQtbibjbkblbm#J#6#Jax#AanaVaTa5bnboadbpbqbrbsbtbubvbwbebxbhb.Qt",
"QtQtbybzaCbAbBbCahaT#Jaxa4bD#RbpaAbEa7braPbo#NbF#ObGbHbabIbhb.Qt",
"QtQtbJaTbKaCalaVbobCbLaX#0bqbMbla7bqboa4#Z#NbF#OaX#4asaYbNbhb.Qt",
"QtQtbOaHbPbKaCal#xaqa6bQbRbSbt#R#0afa4#Z#Nbj#RbTbUbV#NbWbXbhb.Qt",
"QtQtbY#4bZbPbKaCal#xaq#5#Sboad#0afa4#Zbkb0bQb1#2#3boawb2b3b4b.Qt",
"QtQtb5b6b7aXbPbKaCal#xaq#Zad#0afbtb8b9c.c#b1#2#3ag#Paq#IcacbccQt",
"QtQt.l#ocdceb8axbKaCal#xcf#0af#Scgchc.c#b1#2#3#7#xcicjckclcm.0Qt",
"QtQtQt.lcccncocpcq#xaCalakafa4crcsctc#b1aeaScuaCcvcwcxcyczaJcAQt",
"QtQtQtQtQt.mcBcCcDcEabaCcFajblcGcHcIcJcKciaqcLcMcNcOcPcQcBcAQtQt",
"QtQtQtQtQtQtQtcA#ocRcScTcUcVcWcXcYcZcHc0c1c2c3c4c5#a.0.OQtQtQtQt",
"QtQtQtQtQtQtQtQtQtb.c6c7c8c9d.d#dacCdbdcddde.Tdfcc.mQtQtQtQtQtQt",
"QtQtQtQtQtQtQtQtQtQt.l.0cQdgc6dha..O.Ididj#o.U.lQtQtQtQtQtQtQtQt"};
