/* XPM */
static char *dummy[]={
"32 32 256 2",
"Qt c None",
"b5 c #333333",
".# c #333333",
".a c #333333",
"b9 c #475155",
"b4 c #515c62",
"bS c #5b696f",
".m c #314f76",
".t c #3d608e",
".l c #425fd3",
".j c #435fd3",
"b8 c #445258",
"b7 c #455258",
".f c #4634ce",
"aD c #4f667a",
".q c #5179db",
".e c #5245d2",
"a0 c #555555",
"a2 c #565656",
"a1 c #575757",
"aC c #587289",
".g c #588ed3",
".x c #5986df",
".n c #598ed4",
".u c #5b8fd4",
".M c #5c88e0",
".O c #5c89e0",
".o c #5c8fd4",
".v c #5d92d5",
".I c #5d92d6",
".i c #5f99e4",
".h c #5f99e5",
"a9 c #606060",
".2 c #608be1",
".U c #608ce1",
".J c #6095d6",
"bb c #616161",
".Q c #6194d6",
".s c #629be5",
".p c #629ce5",
".8 c #638ee1",
"#j c #648fe2",
".4 c #6597d7",
".R c #6598d7",
".w c #659ee6",
"b. c #676767",
"#m c #6792e3",
"#o c #6892e3",
".P c #68a0e7",
".K c #68a1e7",
"ba c #696969",
".5 c #699bd8",
".L c #69a1e7",
"b# c #6a6a6a",
"b6 c #6a8088",
"bl c #6b6b6b",
"#z c #6b94e5",
"#s c #6b95e4",
"bt c #6c6c6c",
"#k c #6c9ed9",
".S c #6ca3e8",
".3 c #6ca4e8",
".T c #6da4e8",
"bw c #6e6e6e",
"#U c #6f98e5",
"#E c #7098e5",
".6 c #70a7e9",
"#p c #71a1d9",
"#A c #71a2d9",
".7 c #71a7e9",
"bj c #727272",
"bu c #737373",
"bk c #747474",
"bv c #757575",
"#B c #75a6da",
"#l c #75abea",
"#X c #76a6db",
"aG c #799cb8",
"aB c #799dbc",
"#Y c #79a9db",
"#5 c #79a9dc",
"#r c #7aaeeb",
"#q c #7aafeb",
".d c #7e85e1",
"bR c #7e99a6",
"#V c #7eb3ed",
"#6 c #7faddd",
"#3 c #7faeeb",
"#1 c #7fafeb",
"#C c #7fb2ec",
"#W c #7fb3ec",
"#D c #7fb3ed",
"b3 c #809ba6",
"ab c #82b1de",
"ak c #83b2de",
"#0 c #83b6ee",
"#4 c #83b7ee",
"#Z c #84b7ee",
"aq c #88b4df",
"al c #88b5df",
"#7 c #88bbef",
"aa c #89bbee",
"#8 c #89bbef",
"aZ c #8c8c8c",
"ax c #8db8e0",
"ar c #8db9e1",
"a3 c #8e8e8e",
"aY c #8eb5d2",
"ad c #8ebff0",
"ac c #8ec0f0",
".y c #909094",
".z c #909498",
".A c #90999e",
".B c #90a0a5",
".C c #90a8ad",
".D c #90afb5",
".E c #90b7bd",
".F c #90bdc4",
".G c #90c3ca",
".H c #90c7ce",
".b c #91b8ed",
"ay c #91bde2",
"ap c #93c3f1",
"ao c #93c3f2",
"an c #93c4f1",
"am c #93c4f2",
"aU c #96c1e3",
"aE c #96c1e4",
"av c #98c8f2",
"as c #98c8f3",
"aw c #99c7f3",
"au c #99c8f2",
"at c #99c8f3",
"bc c #9ac2de",
"a8 c #9ac2df",
"a5 c #9bc4e4",
"aV c #9bc4e5",
"bK c #9cbdd0",
"aA c #9dccf4",
"a# c #9ec8f2",
"az c #9eccf4",
"bm c #9fc6df",
"bi c #9fc6e0",
"be c #9fc8e6",
"#9 c #9fc8f2",
"a6 c #a0c8e6",
".9 c #a3a3af",
"#. c #a3a7b3",
"#i c #a3a8b3",
"## c #a3aeb8",
"#a c #a3b5be",
"#b c #a3bec4",
"#c c #a3c6cb",
"#h c #a3c6cc",
"bs c #a3c8e1",
"bx c #a3c9e1",
"bo c #a3cce6",
"#d c #a3ced2",
"aT c #a3d0f5",
"aF c #a3d0f6",
"#e c #a3d6d8",
"#f c #a3dcdd",
"#g c #a3e1e1",
"bf c #a4cce6",
"bB c #a6cce1",
"bC c #a7cce1",
"aX c #a7d4f6",
"a4 c #a7d4f7",
"aW c #a7d5f6",
"bJ c #a8cee0",
"bp c #a8cfe7",
"by c #a8cfe8",
"bQ c #abcfe1",
"aj c #abd0f4",
"ae c #abd1f4",
"bE c #abd2e9",
"bz c #acd2e8",
"a7 c #acd8f8",
"bd c #add8f7",
".c c #aecbf2",
".k c #afafaf",
"bF c #afd5e9",
"bh c #b0dcf9",
"bn c #b1dcf9",
"bg c #b1ddf9",
"#G c #b3bfcb",
"#T c #b3bfcc",
"#H c #b3c5d0",
"#R c #b3d2da",
"#J c #b3d3db",
"bL c #b3d8ea",
"#N c #b3eeef",
"#F c #b4bac8",
"#S c #b4c5d0",
"#I c #b4cbd5",
"#Q c #b4dae1",
"#K c #b4dbdf",
"#P c #b4e1e6",
"#L c #b4e2e6",
"#M c #b4e8ea",
"#O c #b4f1f2",
"bT c #b5d9eb",
"bq c #b5dffa",
"br c #b5e0fa",
".r c #b7b7b7",
"bI c #b7e0f4",
"bA c #b9e3fb",
"bD c #b9e3fc",
"b2 c #bcdae7",
"bG c #bde6fc",
"bH c #bde7fc",
"aJ c #c0c0c0",
"bN c #c0e9fd",
"aK c #c1c1c1",
"bM c #c1e9fd",
"af c #c3ddf7",
"aL c #c4c4c4",
"bU c #c4ebfe",
"bV c #c4ecfe",
"aI c #c5c5c5",
".N c #c7c7c7",
"bO c #c8ecfd",
"aS c #c9c9c9",
"bP c #c9ecfd",
"aM c #cbcbcb",
"bW c #ceeffe",
".0 c #cfcfcf",
".W c #cfcfd0",
".X c #cfd0cf",
".Y c #cfd0d0",
".V c #d0cfcf",
".1 c #d0d0cf",
".Z c #d0d0d0",
"ag c #d2e6f9",
"aN c #d4d4d4",
"aR c #d5d5d5",
"ah c #d5e7f9",
"ai c #d5e7fa",
"b1 c #d7f1fe",
"bX c #d7f2fe",
"aO c #d8d8d8",
"aP c #dbdbdb",
"bY c #dcf4fe",
"aQ c #dddddd",
"b0 c #ddf3fe",
"bZ c #ddf4fe",
"aH c #dedede",
"#n c #e0e0e0",
"#t c #e7e7e7",
"#v c #e7e7e8",
"#y c #e7e8e7",
"#u c #e7e8e8",
"#x c #e8e7e7",
"#w c #e8e8e7",
"#2 c #f5f5f5",
"a. c #fafafa",
"QtQtQtQtQtQtQtQtQtQtQtQtQtQtQtQtQtQtQtQtQtQtQtQtQtQtQtQtQtQtQtQt",
"QtQtQtQtQtQtQtQtQtQtQtQtQtQtQtQtQtQtQtQtQtQtQtQtQtQtQtQtQtQtQtQt",
"QtQt.#.a.a.a.a.a.a.a.a.a.a.a.a.a.a.a.a.a.a.a.a.a.a.a.a.a.a.#QtQt",
"QtQt.a.b.c.c.d.e.f.f.f.f.f.f.f.f.f.f.f.f.f.f.f.f.e.d.c.c.b.aQtQt",
"QtQt.a.g.h.i.j.k.k.k.k.k.k.k.k.k.k.k.k.k.k.k.k.k.k.l.i.m.n.aQtQt",
"QtQt.a.o.p.p.q.r.r.r.r.r.r.r.r.r.r.r.r.r.r.r.r.r.r.q.s.t.u.aQtQt",
"QtQt.a.v.w.w.x.y.z.A.B.C.D.E.F.G.H.G.F.E.D.C.B.A.z.x.w.w.I.aQtQt",
"QtQt.a.J.K.L.M.N.N.N.N.N.N.N.N.N.N.N.N.N.N.N.N.N.N.O.L.P.Q.aQtQt",
"QtQt.a.R.S.T.U.V.W.X.Y.Z.V.Y.0.Z.W.V.W.0.W.X.0.V.1.2.3.3.4.aQtQt",
"QtQt.a.5.6.7.8.9#.###a#b#c#d#e#f#g#f#e#d#h#b#a###i#j.7.7.5.aQtQt",
"QtQt.a#k#l#l#m#n#n#n#n#n#n#n#n#n#n#n#n#n#n#n#n#n#n#o#l#l#k.aQtQt",
"QtQt.a#p#q#r#s#t#t#u#v#v#t#w#x#v#v#x#y#x#t#x#t#w#x#z#q#q#A.aQtQt",
"QtQt.a#B#C#D#E#F#G#H#I#J#K#L#M#N#O#N#M#P#Q#R#I#S#T#U#V#W#X.aQtQt",
"QtQt.a#Y#Z#0#1#2#2#2#2#2#2#2#2#2#2#2#2#2#2#2#2#2#2#3#4#4#5.aQtQt",
"QtQt.a#6#7#8#9a.a.a.a.a.a.a.a.a.a.a.a.a.a.a.a.a.a.a#aa#8#6.aQtQt",
"QtQt.aabacadaeafagahahahahahahahahahaiahahahahagafajadacak.aQtQt",
"QtQt.aalamanananaoanapapapamananaoanamapanananamaoaoamamaq.aQtQt",
"QtQt.aarasatasatasasasasasauasavasasasasasavavawavasauasax.aQtQt",
"QtQt.aayazaAaBaCaDaDaDaDaDaDaDaDaDaDaDaDaDaDaDaDaCaBazaAay.aQtQt",
"QtQt.aaEaFaFaGaH.ZaIaJaKaL.NaM.0aNaOaPaQaQaPaR.0aSaGaTaFaU.aQtQt",
"QtQt.aaVaWaXaYaH.ZaZa0a1a2a3aM.0aNaOaPaQaQaPaR.0aSaYaXa4a5.aQtQt",
"QtQt.aa6a7a7a8aH.Za9b.b#babbaM.0aNaOaPaQaQaPaR.0aSbca7bdbe.aQtQt",
"QtQt.abfbgbhbiaH.Zb#bjbkbkblaM.0aNaOaPaQaQaPaR.0aSbmbnbgbo.aQtQt",
"QtQt.abpbqbrbsaH.ZbtbubkbvbwaM.0aNaOaPaQaQaPaR.0aSbxbqbrby.aQtQt",
"QtQt.abzbAbAbBaH.ZbtbubkbvbwaM.0aNaOaPaQaQaPaR.0aSbCbDbAbE.aQtQt",
"QtQt.abFbGbHbIaH.ZbtbubkbvbwaM.0aNaOaPaQaQaPaR.0aSbIbGbJbK.aQtQt",
"QtQt.abLbMbNbOaH.ZbtbubkbvbwaM.0aNaOaPaQaQaPaR.0aSbPbQbRbS.#QtQt",
"QtQt.abTbUbVbWbXbYbYbZbZbZbZbZbZbYb0b0bZbYb0bZbYb1b2b3b4.#b5QtQt",
"QtQt.ab6b7b7b8b8b8b8b7b7b8b7b7b7b7b8b8b7b7b7b7b7b8b7b9.#b5QtQtQt",
"QtQt.#.a.a.a.a.a.a.a.a.a.a.a.a.a.a.a.a.a.a.a.a.a.a.a.#b5QtQtQtQt",
"QtQtQtQtQtQtQtQtQtQtQtQtQtQtQtQtQtQtQtQtQtQtQtQtQtQtQtQtQtQtQtQt",
"QtQtQtQtQtQtQtQtQtQtQtQtQtQtQtQtQtQtQtQtQtQtQtQtQtQtQtQtQtQtQtQt"};
